# xmcd
#
# Track frame offsets: 
#        182
#        12570
#        26130
#        37502
#        48130
#        58877
#        69370
#        78935
#        91037
#        99467
#        111932
#        125372
#        141050
#        157527
#        168820
#        180135
#        191102
#        212837
#        223105
#        233687
#        251615
#        265192
#        280037
#        291170
#
# Disc length: 4300 seconds
#
# Revision: 18
# Processed by: cddbd v1.5.2PL0 Copyright (c) Steve Scherf et al.
# Submitted via: ExactAudioCopyFreeDBPlugin 1.0
#
DISCID=3c10ca18
DTITLE=James Brown - Star Time [box set]
DYEAR=1991
DGENRE=Soul
TTITLE0=Please Please Please
TTITLE1=Why Do You Do Me
TTITLE2=Try Me
TTITLE3=Tell Me What I Did Wrong
TTITLE4=Bewildered
TTITLE5=Good Good Lovin'
TTITLE6=I'll Go Crazy
TTITLE7=I Know It's True
TTITLE8=(Do The) Mashed Potatoes, Part 1 (as "Nat Kendrick and The Swans
TTITLE8=")
TTITLE9=Think
TTITLE10=Baby You're Right
TTITLE11=Lost Someone
TTITLE12=Night Train
TTITLE13=I've Got Money
TTITLE14=I Don't Mind (live)
TTITLE15=Prisoner of Love
TTITLE16=Devil's Den
TTITLE17=Out of the Blue
TTITLE18=Out of Sight
TTITLE19=Grits
TTITLE20=Maybe the Last Time
TTITLE21=It's a Man's World
TTITLE22=I Got You
TTITLE23=Papa's Got a Brand New Bag, Parts 1, 2 and 3
EXTD=YEAR: 1991
EXTT0=YEAR: 1956
EXTT1=YEAR: 1956
EXTT2=YEAR: 1958
EXTT3=YEAR: 1958
EXTT4=YEAR: 1959
EXTT5=YEAR: 1959
EXTT6=YEAR: 1959
EXTT7=YEAR: 1959
EXTT8=YEAR: 1959
EXTT9=YEAR: 1960
EXTT10=YEAR: 1960
EXTT11=YEAR: 1961
EXTT12=YEAR: 1961
EXTT13=YEAR: 1962
EXTT14=YEAR: 1962
EXTT15=YEAR: 1962
EXTT16=YEAR: 1963
EXTT17=YEAR: 1964
EXTT18=YEAR: 1964
EXTT19=YEAR: 1964
EXTT20=YEAR: 1964
EXTT21=YEAR: 1964
EXTT22=YEAR: 1964
EXTT23=YEAR: 1965
PLAYORDER=
